<mxfile host="app.diagrams.net" modified="2023-07-08T05:41:40.304Z" agent="Mozilla/5.0 (Macintosh; Intel Mac OS X 10_15_7) AppleWebKit/537.36 (KHTML, like Gecko) Chrome/114.0.0.0 Safari/537.36" version="21.6.1" etag="DPf-c39M_g9vWc6mISrp" type="github">
  <diagram name="페이지-1" id="Gih7vDpJe-NBIuHxPKvy">
    <mxGraphModel>
      <root>
        <mxCell id="0" />
        <mxCell id="1" parent="0" />
      </root>
    </mxGraphModel>
  </diagram>
</mxfile>
